<svg id="圖層_1" data-name="圖層 1" xmlns="http://www.w3.org/2000/svg" width="5.64mm" height="5.64mm" viewBox="0 0 16 16"><defs><style>.cls-1{opacity:0.55;}</style></defs><path class="cls-1" d="M12.49,0h-9A3.51,3.51,0,0,0,0,3.51v9A3.51,3.51,0,0,0,3.51,16h9A3.51,3.51,0,0,0,16,12.49v-9A3.51,3.51,0,0,0,12.49,0Zm.63,11.81H10.33a.51.51,0,0,1-.47-.54.52.52,0,0,1,.47-.55h2.79a.52.52,0,0,1,.47.55A.51.51,0,0,1,13.12,11.81Zm0-3.27H6.6a.55.55,0,0,1,0-1.08h6.52a.55.55,0,0,1,0,1.08Zm0-3.26H2.88a.52.52,0,0,1-.47-.55.51.51,0,0,1,.47-.54H13.12a.51.51,0,0,1,.47.54A.52.52,0,0,1,13.12,5.28Z"/></svg>