<svg id="圖層_1" data-name="圖層 1" xmlns="http://www.w3.org/2000/svg" width="5.64mm" height="5.64mm" viewBox="0 0 16 16"><defs><style>.cls-1{fill-opacity:0.55;opacity:0.55;}</style></defs><path class="cls-1" d="M14.64,11.88a.61.61,0,0,0-.55-.65H10.77a.66.66,0,0,0,0,1.3h3.32A.61.61,0,0,0,14.64,11.88Zm0-3.88a.61.61,0,0,0-.55-.65H6.34A.6.6,0,0,0,5.79,8a.6.6,0,0,0,.55.65h7.75A.61.61,0,0,0,14.64,8Zm0-3.88a.61.61,0,0,0-.55-.65H1.91a.61.61,0,0,0-.55.65.61.61,0,0,0,.55.65H14.09A.61.61,0,0,0,14.64,4.12Z"/></svg>