<svg id="圖層_1" data-name="圖層 1" xmlns="http://www.w3.org/2000/svg" width="5.64mm" height="5.64mm" viewBox="0 0 16 16"><defs><style>.cls-1{fill:#0d6efd;isolation:isolate;}</style></defs><path class="cls-1" d="M12.5,0h-9A3.54,3.54,0,0,0,0,3.5v9A3.54,3.54,0,0,0,3.5,16h9A3.54,3.54,0,0,0,16,12.5v-9A3.54,3.54,0,0,0,12.5,0Zm.6,11.8H10.3a.5.5,0,0,1,0-1h2.8a.5.5,0,0,1,0,1Zm0-3.3H6.6a.5.5,0,0,1,0-1h6.5a.5.5,0,1,1,0,1Zm0-3.2H2.9a.56.56,0,0,1-.5-.6.47.47,0,0,1,.5-.5H13.1a.47.47,0,0,1,.5.5A.56.56,0,0,1,13.1,5.3Z"/></svg>